    <svg width="21" height="18" viewBox="0 0 21 18" fill="none" xmlns="http://www.w3.org/2000/svg">
<path d="M2.47753 6.16107V3.86577C2.47753 3.54362 2.61517 3.24161 2.89045 2.95973C3.16573 2.67785 3.46067 2.53691 3.77528 2.53691H13.8034C14 2.53691 14.177 2.57718 14.3343 2.65772L16.3399 0.90604C15.4747 0.302013 14.6292 0 13.8034 0H3.77528C2.67416 0 1.76966 0.362416 1.0618 1.08725C0.353933 1.81208 0 2.73826 0 3.86577V14.1342C0 15.1812 0.363764 16.0872 1.09129 16.8523C1.81882 17.6174 2.71348 18 3.77528 18H13.8034C14.8652 18 15.7598 17.6174 16.4874 16.8523C17.2149 16.0872 17.5787 15.1812 17.5787 14.1342V9.90604L15.1011 12.2013V14.1342C15.1011 14.4564 14.9635 14.7584 14.6882 15.0403C14.4129 15.3221 14.118 15.4631 13.8034 15.4631H3.77528C3.46067 15.4631 3.16573 15.3221 2.89045 15.0403C2.61517 14.7584 2.47753 14.4564 2.47753 14.1342V6.16107ZM21 3.56376L19.2303 1.51007L17.5787 3.20134L15.1011 5.37584L10.323 9.66443L7.25562 5.67785L5.25 7.18792L9.79214 13.5302L15.1011 8.75839L17.5787 6.52349L21 3.56376Z" fill="#606060"/>
</svg>
