<svg width="610" height="406" viewBox="0 0 610 406" fill="none" xmlns="http://www.w3.org/2000/svg">
<path d="M-55.0785 285.928C-128.863 209.665 -169.458 108.683 -169.593 0.887024L-164.761 0.893425C-164.487 220.23 8.2826 398.802 220.493 399.085C323.176 399.222 419.968 357.939 492.356 283.12C564.946 208.093 604.686 108.258 604.554 2.12717L609.386 2.13359C609.721 109.721 569.177 210.804 495.582 286.87C421.988 362.936 324.391 404.634 220.097 404.495C116.609 403.941 18.7064 362.19 -55.0785 285.928Z" stroke="url(#paint0_linear)" stroke-opacity="0.6"/>
<path d="M-35.976 266.184C-101.697 198.256 -142.686 104.348 -142.614 0.922883L-137.781 0.929329C-137.527 204.867 23.3484 371.145 220.66 371.408C417.972 371.671 578.433 205.821 578.178 1.88382L583.01 1.89024C583.268 208.741 420.797 376.669 220.666 376.402C120.601 376.477 29.745 334.112 -35.976 266.184Z" stroke="url(#paint1_linear)" stroke-opacity="0.6"/>
<path d="M-17.0746 246.648C-80.578 181.012 -115.72 93.5631 -115.836 0.750656L-111.004 0.75708C-110.889 92.3209 -76.1521 178.104 -13.6567 242.698C49.0403 307.501 132.237 343.197 220.625 343.106C309.214 343.224 392.12 307.542 454.455 243.114C516.99 178.479 551.312 92.5794 550.997 1.22343L555.829 1.22988C555.945 94.0423 521.222 181.19 457.681 246.864C394.341 312.331 309.824 348.428 220.027 348.308C131.036 348.606 46.4288 312.284 -17.0746 246.648Z" stroke="url(#paint2_linear)" stroke-opacity="0.6"/>
<path d="M1.82675 227.111C-54.2175 169.185 -88.9474 89.2287 -89.2586 1.20226L-84.4265 1.20871C-84.2099 174.764 52.6747 315.83 220.188 316.053C388.105 316.277 524.234 175.159 524.018 2.0198L528.85 2.0262C529.272 178.287 390.728 321.483 219.993 321.255C135.23 320.934 57.871 285.038 1.82675 227.111Z" stroke="url(#paint3_linear)" stroke-opacity="0.6"/>
<path d="M20.7284 207.575C-30.4775 154.65 -62.1789 81.5648 -62.4807 1.02994L-57.6485 1.03637C-57.4512 159.192 67.1364 287.964 220.154 288.168C373.171 288.372 497.438 159.932 497.24 1.77613L502.072 1.78254C502.273 162.852 375.795 293.578 219.959 293.37C142.645 293.267 71.9343 260.501 20.7284 207.575Z" stroke="url(#paint4_linear)" stroke-opacity="0.6"/>
<path d="M39.8307 187.831C-6.53681 139.907 -35.4105 73.9007 -35.5014 1.06583L-30.6693 1.07228C-30.4911 143.829 82.2022 260.306 220.32 260.49C287.165 260.58 350.15 233.819 397.605 184.771C444.858 135.93 470.75 70.8297 470.663 1.74058L475.496 1.74703C475.584 72.5009 449.09 138.641 400.831 188.521C352.572 238.4 288.581 265.784 220.126 265.693C150.06 265.599 86.1983 235.756 39.8307 187.831Z" stroke="url(#paint5_linear)" stroke-opacity="0.6"/>
<path d="M58.7321 168.295C17.2029 125.371 -8.64221 66.2367 -8.52215 1.1018L-3.69001 1.10822C-3.3295 128.674 97.0663 232.441 220.487 232.813C343.907 232.77 444.045 129.27 444.087 1.70512L448.919 1.71158C449.081 131.982 346.733 238.184 220.493 237.808C157.273 237.724 100.261 211.219 58.7321 168.295Z" stroke="url(#paint6_linear)" stroke-opacity="0.6"/>
<defs>
<linearGradient id="paint0_linear" x1="179.583" y1="219.906" x2="349.095" y2="450" gradientUnits="userSpaceOnUse">
<stop stop-color="#FF6D43"/>
<stop offset="1" stop-color="#E1E4EB" stop-opacity="0.47"/>
</linearGradient>
<linearGradient id="paint1_linear" x1="179.583" y1="219.906" x2="349.095" y2="450" gradientUnits="userSpaceOnUse">
<stop stop-color="#FF6D43"/>
<stop offset="1" stop-color="#E1E4EB" stop-opacity="0.47"/>
</linearGradient>
<linearGradient id="paint2_linear" x1="179.583" y1="219.906" x2="349.095" y2="450" gradientUnits="userSpaceOnUse">
<stop stop-color="#FF6D43"/>
<stop offset="1" stop-color="#E1E4EB" stop-opacity="0.47"/>
</linearGradient>
<linearGradient id="paint3_linear" x1="179.583" y1="219.906" x2="349.095" y2="450" gradientUnits="userSpaceOnUse">
<stop stop-color="#FF6D43"/>
<stop offset="1" stop-color="#E1E4EB" stop-opacity="0.47"/>
</linearGradient>
<linearGradient id="paint4_linear" x1="179.583" y1="219.906" x2="349.095" y2="450" gradientUnits="userSpaceOnUse">
<stop stop-color="#FF6D43"/>
<stop offset="1" stop-color="#E1E4EB" stop-opacity="0.47"/>
</linearGradient>
<linearGradient id="paint5_linear" x1="179.583" y1="219.906" x2="349.095" y2="450" gradientUnits="userSpaceOnUse">
<stop stop-color="#FF6D43"/>
<stop offset="1" stop-color="#E1E4EB" stop-opacity="0.47"/>
</linearGradient>
<linearGradient id="paint6_linear" x1="179.583" y1="219.906" x2="349.095" y2="450" gradientUnits="userSpaceOnUse">
<stop stop-color="#FF6D43"/>
<stop offset="1" stop-color="#E1E4EB" stop-opacity="0.47"/>
</linearGradient>
</defs>
</svg>
