<svg width="595" height="473" viewBox="0 0 595 473" fill="none" xmlns="http://www.w3.org/2000/svg">
<path d="M293.217 15.0075C395.293 -12.8064 501.725 2.00782 593.605 56.8888L591.169 61.2555C404.215 -50.4136 165.203 14.7137 58.2013 206.481C6.42643 299.272 -7.10667 407.87 20.2015 511.51C47.5855 615.438 112.625 702.318 203.086 756.351L200.65 760.718C108.845 706.125 43.1477 617.882 15.3844 512.514C-12.3789 407.146 1.20555 297.609 53.7926 203.362C106.328 110.056 191.142 42.8215 293.217 15.0075Z" stroke="url(#paint0_linear)" stroke-opacity="0.3"/>
<path d="M300.424 42.3572C391.343 17.5829 491.948 28.4311 580.002 81.2692L577.566 85.6358C403.738 -18.1931 181.18 42.4505 81.6908 220.754C-17.7982 399.058 42.7349 628.794 216.563 732.623L214.126 736.99C37.8152 631.677 -23.4764 399.062 77.4338 218.211C127.712 127.68 209.504 67.1314 300.424 42.3572Z" stroke="url(#paint1_linear)" stroke-opacity="0.3"/>
<path d="M307.554 69.4188C395.406 45.4805 487.568 58.3207 566.677 105.573L564.241 109.94C486.195 63.323 395.656 50.9666 309.198 74.5249C222.462 98.1592 150.203 155.184 105.814 235.163C61.1451 315.218 49.8278 408.401 73.3431 497.647C96.9344 587.181 152.831 662.049 230.8 708.379L228.363 712.745C149.254 665.492 92.4965 589.624 68.526 498.651C44.6314 407.966 56.4062 313.115 101.684 231.968C146.201 151.338 219.702 93.3571 307.554 69.4188Z" stroke="url(#paint2_linear)" stroke-opacity="0.3"/>
<path d="M314.684 96.4804C392.217 75.3539 477.791 84.7439 552.922 129.378L550.485 133.744C402.554 45.3839 213.54 97.1961 129.076 248.572C44.4084 400.312 96.1178 595.426 243.694 683.575L241.258 687.941C90.9192 598.385 38.6544 400.029 124.743 245.742C167.66 169.25 237.152 117.607 314.684 96.4804Z" stroke="url(#paint3_linear)" stroke-opacity="0.3"/>
<path d="M321.815 123.542C392.654 104.24 470.851 112.862 539.597 153.682L537.161 158.049C402.355 77.5285 229.998 124.493 152.844 262.769C75.689 401.046 122.568 578.962 257.373 659.482L254.937 663.849C117.648 581.845 69.9349 400.762 148.511 259.939C187.494 190.073 250.975 142.845 321.815 123.542Z" stroke="url(#paint4_linear)" stroke-opacity="0.3"/>
<path d="M329.021 150.892C393.167 133.413 463.912 140.981 525.994 178.063L523.557 182.429C401.878 109.749 245.975 152.23 176.333 277.042C142.629 337.447 133.735 408.062 151.637 476.005C169.463 543.659 211.885 600.291 270.774 635.466L268.338 639.832C208.03 603.81 165.025 546.102 146.82 477.009C128.614 407.915 137.484 336.072 172 274.212C207.329 210.896 264.875 168.371 329.021 150.892Z" stroke="url(#paint5_linear)" stroke-opacity="0.3"/>
<path d="M336.152 177.953C393.604 162.299 456.973 169.099 512.39 202.443L509.954 206.809C401.121 142.045 262.231 179.891 199.823 291.315C137.769 402.952 175.545 546.321 284.175 611.449L281.738 615.816C170.701 549.493 131.736 402.744 195.566 288.773C227.443 231.643 278.699 193.608 336.152 177.953Z" stroke="url(#paint6_linear)" stroke-opacity="0.3"/>
<defs>
<linearGradient id="paint0_linear" x1="231.395" y1="260.91" x2="-50.6868" y2="288.317" gradientUnits="userSpaceOnUse">
<stop stop-color="#FF6D43"/>
<stop offset="1" stop-color="white"/>
</linearGradient>
<linearGradient id="paint1_linear" x1="231.395" y1="260.91" x2="-50.6868" y2="288.317" gradientUnits="userSpaceOnUse">
<stop stop-color="#FF6D43"/>
<stop offset="1" stop-color="white"/>
</linearGradient>
<linearGradient id="paint2_linear" x1="231.395" y1="260.91" x2="-50.6868" y2="288.317" gradientUnits="userSpaceOnUse">
<stop stop-color="#FF6D43"/>
<stop offset="1" stop-color="white"/>
</linearGradient>
<linearGradient id="paint3_linear" x1="231.395" y1="260.91" x2="-50.6868" y2="288.317" gradientUnits="userSpaceOnUse">
<stop stop-color="#FF6D43"/>
<stop offset="1" stop-color="white"/>
</linearGradient>
<linearGradient id="paint4_linear" x1="231.395" y1="260.91" x2="-50.6868" y2="288.317" gradientUnits="userSpaceOnUse">
<stop stop-color="#FF6D43"/>
<stop offset="1" stop-color="white"/>
</linearGradient>
<linearGradient id="paint5_linear" x1="231.395" y1="260.91" x2="-50.6868" y2="288.317" gradientUnits="userSpaceOnUse">
<stop stop-color="#FF6D43"/>
<stop offset="1" stop-color="white"/>
</linearGradient>
<linearGradient id="paint6_linear" x1="231.395" y1="260.91" x2="-50.6868" y2="288.317" gradientUnits="userSpaceOnUse">
<stop stop-color="#FF6D43"/>
<stop offset="1" stop-color="white"/>
</linearGradient>
</defs>
</svg>
