<svg width="520" height="396" viewBox="0 0 520 396" fill="none" xmlns="http://www.w3.org/2000/svg">
<path d="M469.616 -27.0474C418.222 -119.523 333.279 -185.341 229.828 -212.759L228.405 -207.965C438.902 -152.176 559.242 64.3577 496.748 274.877C466.509 376.741 398.246 462.28 305.004 515.129C211.503 568.125 103.901 582.265 2.04738 555.27L0.624329 560.064C103.817 587.629 212.854 573.007 307.65 519.278C402.446 465.548 471.346 379.316 502.059 275.854C532.136 173.085 521.01 65.4279 469.616 -27.0474Z" stroke="url(#paint0_linear)" stroke-opacity="0.5"/>
<path d="M445.01 -13.1012C399.233 -95.4699 321.199 -159.888 221.882 -185.995L220.459 -181.201C416.178 -129.329 528.234 72.2978 470.127 268.037C412.02 463.776 205.334 580.925 9.61496 529.052L8.19193 533.846C206.707 586.459 415.983 467.843 474.92 269.307C504.588 170.092 490.787 69.2675 445.01 -13.1012Z" stroke="url(#paint1_linear)" stroke-opacity="0.5"/>
<path d="M420.664 0.698367C376.431 -78.8911 302.869 -135.876 213.797 -159.483L212.374 -154.689C300.248 -131.4 372.331 -75.2379 415.861 3.08815C459.532 81.6669 469.195 173.208 442.966 260.838C416.877 348.721 358.098 421.907 277.806 467.416C197.256 513.072 104.635 525.366 17.0204 501.93L15.5974 506.723C104.669 530.33 198.607 517.955 280.453 471.565C362.039 425.322 421.692 350.644 448.137 261.563C474.743 173.386 464.896 80.2878 420.664 0.698367Z" stroke="url(#paint2_linear)" stroke-opacity="0.5"/>
<path d="M396.317 14.4977C357.281 -55.7431 290.789 -110.423 206.37 -133.012L204.947 -128.219C371.507 -84.0743 466.453 87.3792 417.122 253.558C367.672 420.136 191.926 519.415 25.7644 475.377L24.3414 480.17C193.439 525.203 371.894 424.056 422.174 254.681C446.936 170.54 435.354 84.7386 396.317 14.4977Z" stroke="url(#paint3_linear)" stroke-opacity="0.5"/>
<path d="M371.971 28.2974C336.304 -35.8794 275.514 -85.8165 198.284 -106.501L196.861 -101.707C348.643 -61.4793 435.423 94.6676 390.36 246.465C345.298 398.263 185.233 488.987 33.4507 448.76L32.0277 453.553C186.606 494.522 349.52 402.183 395.413 247.589C418.181 170.891 407.638 92.4743 371.971 28.2974Z" stroke="url(#paint4_linear)" stroke-opacity="0.5"/>
<path d="M347.365 42.2436C315.069 -15.8693 260.238 -61.2104 190.339 -79.7362L188.916 -74.9426C325.919 -38.632 404.414 102.608 363.739 239.625C344.054 305.937 299.732 361.625 238.607 396.271C177.741 430.769 107.582 439.968 41.2772 422.395L39.8542 427.188C107.757 445.185 179.092 435.652 241.253 400.419C303.415 365.187 348.632 308.658 368.791 240.749C389.425 171.241 379.662 100.356 347.365 42.2436Z" stroke="url(#paint5_linear)" stroke-opacity="0.5"/>
<path d="M323.019 56.0429C294.092 3.99399 244.963 -36.6044 182.394 -52.972L180.971 -48.1784C303.335 -15.532 373.265 110.295 337.118 232.785C300.572 355.169 171.587 428.277 49.1039 396.03L47.6809 400.823C172.701 433.958 304.935 359.341 341.911 234.055C360.529 171.339 351.945 108.092 323.019 56.0429Z" stroke="url(#paint6_linear)" stroke-opacity="0.5"/>
<defs>
<linearGradient id="paint0_linear" x1="336.824" y1="188.953" x2="514.241" y2="409.962" gradientUnits="userSpaceOnUse">
<stop stop-color="#FF6D43"/>
<stop offset="1" stop-color="white"/>
</linearGradient>
<linearGradient id="paint1_linear" x1="336.824" y1="188.953" x2="514.241" y2="409.962" gradientUnits="userSpaceOnUse">
<stop stop-color="#FF6D43"/>
<stop offset="1" stop-color="white"/>
</linearGradient>
<linearGradient id="paint2_linear" x1="336.824" y1="188.953" x2="514.241" y2="409.962" gradientUnits="userSpaceOnUse">
<stop stop-color="#FF6D43"/>
<stop offset="1" stop-color="white"/>
</linearGradient>
<linearGradient id="paint3_linear" x1="336.824" y1="188.953" x2="514.241" y2="409.962" gradientUnits="userSpaceOnUse">
<stop stop-color="#FF6D43"/>
<stop offset="1" stop-color="white"/>
</linearGradient>
<linearGradient id="paint4_linear" x1="336.824" y1="188.953" x2="514.241" y2="409.962" gradientUnits="userSpaceOnUse">
<stop stop-color="#FF6D43"/>
<stop offset="1" stop-color="white"/>
</linearGradient>
<linearGradient id="paint5_linear" x1="336.824" y1="188.953" x2="514.241" y2="409.962" gradientUnits="userSpaceOnUse">
<stop stop-color="#FF6D43"/>
<stop offset="1" stop-color="white"/>
</linearGradient>
<linearGradient id="paint6_linear" x1="336.824" y1="188.953" x2="514.241" y2="409.962" gradientUnits="userSpaceOnUse">
<stop stop-color="#FF6D43"/>
<stop offset="1" stop-color="white"/>
</linearGradient>
</defs>
</svg>
