<svg width="29" height="25" viewBox="0 0 29 25" fill="none" xmlns="http://www.w3.org/2000/svg">
<path d="M20.4527 2C21.1808 1.99939 21.9017 2.14413 22.5731 2.42575C23.2445 2.70736 23.8529 3.12018 24.3627 3.64C25.4131 4.70638 26.0019 6.14316 26.0019 7.64C26.0019 9.13685 25.4131 10.5736 24.3627 11.64L14.0027 22.13L3.6427 11.64C2.59229 10.5736 2.00349 9.13685 2.00349 7.64C2.00349 6.14316 2.59229 4.70638 3.6427 3.64C4.1528 3.12055 4.76128 2.70795 5.43262 2.42629C6.10395 2.14464 6.82468 1.99957 7.5527 1.99957C8.28073 1.99957 9.00146 2.14464 9.67279 2.42629C10.3441 2.70795 10.9526 3.12055 11.4627 3.64L14.0027 6.24L16.5327 3.66C17.0409 3.13399 17.65 2.71586 18.3236 2.43064C18.9971 2.14542 19.7213 1.99895 20.4527 2ZM20.4527 2.68285e-06C19.4583 -0.000840038 18.4738 0.196858 17.5568 0.581505C16.6398 0.966151 15.8089 1.53 15.1127 2.24L14.0027 3.36L12.8927 2.24C12.1957 1.53129 11.3645 0.968412 10.4477 0.584193C9.53089 0.199974 8.54677 0.00209743 7.5527 0.00209743C6.55864 0.00209743 5.57452 0.199974 4.65772 0.584193C3.74091 0.968412 2.90976 1.53129 2.2127 2.24C0.794583 3.68363 0 5.62636 0 7.65C0 9.67364 0.794583 11.6164 2.2127 13.06L14.0027 25L25.7927 13.06C27.2108 11.6164 28.0054 9.67364 28.0054 7.65C28.0054 5.62636 27.2108 3.68363 25.7927 2.24C25.0958 1.53091 24.2648 0.967646 23.3479 0.583064C22.4311 0.198482 21.4469 0.000276098 20.4527 2.68285e-06Z" fill="#FF6D43"/>
</svg>
