<svg width="20" height="17" viewBox="0 0 20 17" fill="none" xmlns="http://www.w3.org/2000/svg">
<path d="M1 2.8C1 2.32261 1.18964 1.86477 1.52721 1.52721C1.86477 1.18964 2.32261 1 2.8 1H17.2C17.6774 1 18.1352 1.18964 18.4728 1.52721C18.8104 1.86477 19 2.32261 19 2.8V13.6C19 14.0774 18.8104 14.5352 18.4728 14.8728C18.1352 15.2104 17.6774 15.4 17.2 15.4H2.8C2.32261 15.4 1.86477 15.2104 1.52721 14.8728C1.18964 14.5352 1 14.0774 1 13.6V2.8Z" stroke="#FF7800" stroke-width="1.5" stroke-linecap="round" stroke-linejoin="round"/>
<path d="M1 4.59998L7.7509 10.0009C8.38926 10.5116 9.18246 10.7899 10 10.7899C10.8175 10.7899 11.6107 10.5116 12.2491 10.0009L19 4.59998" stroke="#FF7800" stroke-width="1.5" stroke-linejoin="round"/>
</svg>
