<svg width="20" height="18" viewBox="0 0 20 18" fill="none" xmlns="http://www.w3.org/2000/svg">
<path d="M14.6063 1.44C15.1262 1.43956 15.641 1.54377 16.1205 1.74654C16.6 1.9493 17.0345 2.24653 17.3986 2.6208C18.1487 3.3886 18.5692 4.42307 18.5692 5.5008C18.5692 6.57853 18.1487 7.61301 17.3986 8.3808L10 15.9336L2.60143 8.3808C1.85128 7.61301 1.43079 6.57853 1.43079 5.5008C1.43079 4.42307 1.85128 3.3886 2.60143 2.6208C2.96571 2.2468 3.40026 1.94972 3.87969 1.74693C4.35912 1.54414 4.87383 1.43969 5.39375 1.43969C5.91366 1.43969 6.42837 1.54414 6.9078 1.74693C7.38724 1.94972 7.82178 2.2468 8.18606 2.6208L10 4.4928L11.8068 2.6352C12.1698 2.25647 12.6047 1.95542 13.0857 1.75006C13.5668 1.5447 14.0839 1.43925 14.6063 1.44ZM14.6063 1.93165e-06C13.8961 -0.000604827 13.193 0.141738 12.5382 0.418683C11.8833 0.695629 11.2899 1.1016 10.7927 1.6128L10 2.4192L9.2073 1.6128C8.7095 1.10253 8.11593 0.697256 7.4612 0.420619C6.80646 0.143982 6.10365 0.00151015 5.39375 0.00151015C4.68384 0.00151015 3.98103 0.143982 3.3263 0.420619C2.67156 0.697256 2.078 1.10253 1.5802 1.6128C0.56745 2.65221 0 4.05098 0 5.508C0 6.96502 0.56745 8.36379 1.5802 9.4032L10 18L18.4198 9.4032C19.4326 8.36379 20 6.96502 20 5.508C20 4.05098 19.4326 2.65221 18.4198 1.6128C17.9221 1.10225 17.3286 0.696705 16.6739 0.419806C16.0191 0.142907 15.3163 0.000198791 14.6063 1.93165e-06Z" fill="#FF6D43"/>
</svg>
