<svg width="17" height="17" viewBox="0 0 17 17" fill="none" xmlns="http://www.w3.org/2000/svg">
<path d="M2.26667 3.96667C2.26667 3.21522 2.56518 2.49455 3.09653 1.9632C3.62788 1.43184 4.34855 1.13333 5.1 1.13333H6.8V2.26667H7.93333V0H5.1C4.04797 0 3.03904 0.417915 2.29514 1.16181C1.55125 1.9057 1.13333 2.91464 1.13333 3.96667V7.93333H0V9.06667H1.13333V10.7667C1.13309 11.7207 1.47669 12.6428 2.10115 13.3641C2.72561 14.0853 3.5891 14.5574 4.53333 14.6937V17H5.66667V14.7333H11.3333V17H12.4667V14.6937C13.4108 14.5572 14.2742 14.0851 14.8986 13.3639C15.523 12.6426 15.8667 11.7206 15.8667 10.7667V9.06667H17V7.93333H2.26667V3.96667Z" fill="#FF7800"/>
<path d="M9.06602 4.53336H5.66602V3.40002H9.06602V4.53336Z" fill="#FF7800"/>
</svg>
