<svg width="19" height="18" viewBox="0 0 19 18" fill="none" xmlns="http://www.w3.org/2000/svg">
<path d="M11.0072 8.87748L8.90978 6.72975C8.86681 6.6856 8.81576 6.65056 8.75954 6.62665C8.70332 6.60274 8.64305 6.59044 8.58218 6.59044C8.52131 6.59044 8.46104 6.60274 8.40482 6.62665C8.34861 6.65056 8.29755 6.6856 8.25459 6.72975L0.145227 14.5655C0.100257 14.609 0.0642412 14.6612 0.0393073 14.7191C0.0143733 14.777 0.00102704 14.8395 5.69764e-05 14.9028C-0.00091309 14.966 0.0105127 15.0289 0.0336594 15.0876C0.056806 15.1463 0.0912038 15.1996 0.134821 15.2445L2.68044 17.8607C2.72414 17.9056 2.77619 17.9411 2.83351 17.965C2.89083 17.9889 2.95226 18.0008 3.01415 18C3.07604 17.9991 3.13713 17.9855 3.19381 17.9601C3.25049 17.9346 3.3016 17.8977 3.34411 17.8517L11.0064 9.54813C11.0495 9.50418 11.0837 9.45195 11.1071 9.39444C11.1305 9.33693 11.1425 9.27526 11.1426 9.21297C11.1427 9.15067 11.1308 9.08897 11.1075 9.03141C11.0843 8.97384 11.0502 8.92153 11.0072 8.87748ZM18.9099 6.60502L17.2184 4.88479C17.141 4.80581 17.0492 4.74331 16.9481 4.7009C16.847 4.65849 16.7387 4.63701 16.6295 4.63769C16.4525 4.63786 16.2801 4.69503 16.1366 4.8011C16.1366 4.78413 16.1389 4.76755 16.14 4.75295C16.1574 4.49637 16.1843 4.10875 15.9396 3.75744C15.6486 3.35576 15.3292 2.97658 14.9838 2.62298C14.9829 2.62183 14.9818 2.62078 14.9807 2.61983C14.4674 2.10194 13.3501 1.12656 11.6385 0.411707C10.9891 0.139024 10.2938 -0.000839403 9.59195 3.78987e-06C8.3756 3.78987e-06 7.45063 0.562099 7.09644 0.895251C6.74766 1.22121 6.51891 1.66007 6.44857 2.13826L7.06522 2.52628C7.06522 2.52628 7.37586 2.44733 7.59939 2.39246C7.83293 2.34145 8.07256 2.32615 8.31047 2.34707C8.81882 2.39009 9.42006 2.64864 9.68599 2.86377C10.1369 3.23521 10.3539 3.73573 10.3897 4.48572C10.3975 4.65269 10.0228 5.32846 9.4586 6.05832C9.41167 6.119 9.38814 6.19522 9.39247 6.2725C9.3968 6.34978 9.4287 6.42275 9.48211 6.47752L11.2307 8.26841C11.2867 8.32529 11.3619 8.35801 11.4408 8.35984C11.5196 8.36168 11.5962 8.33249 11.6546 8.27828C12.1198 7.84408 12.8298 7.17304 12.9909 7.0708C13.2872 6.88409 13.4992 6.84817 13.5574 6.84186C13.7084 6.82669 13.8603 6.85949 13.9925 6.9358C13.9932 6.94256 13.9925 6.94938 13.9904 6.95584C13.9884 6.9623 13.985 6.96824 13.9806 6.9733L13.9104 7.04159L13.8989 7.05264C13.8214 7.13173 13.7599 7.22574 13.718 7.32926C13.6762 7.43277 13.6547 7.54376 13.6549 7.65581C13.655 7.76786 13.6769 7.87877 13.7191 7.98214C13.7613 8.08552 13.823 8.17932 13.9008 8.25815L15.5947 9.98233C15.6524 10.0411 15.7306 10.0742 15.812 10.0742C15.8935 10.0742 15.9716 10.0411 16.0294 9.98233L18.9076 7.05343C18.9367 7.02423 18.9598 6.98943 18.9757 6.95104C18.9915 6.91264 18.9998 6.87141 19 6.82972C19.0002 6.78803 18.9924 6.74671 18.9769 6.70815C18.9615 6.66958 18.9387 6.63453 18.9099 6.60502Z" fill="#FF7800"/>
</svg>
