<svg width="17" height="17" viewBox="0 0 17 17" fill="none" xmlns="http://www.w3.org/2000/svg">
<path d="M1 0.000892883L0 1.00089L2.2 4.08189C2.29262 4.21164 2.41491 4.31736 2.55668 4.39024C2.69845 4.46313 2.85559 4.50107 3.015 4.50089H3.085C3.21648 4.50079 3.34669 4.52662 3.46818 4.57689C3.58966 4.62717 3.70004 4.70091 3.793 4.79389L6.468 7.46889L3.851 10.1229C3.40339 9.99113 2.93124 9.96549 2.472 10.048C2.01275 10.1305 1.57905 10.3189 1.2053 10.5982C0.831545 10.8775 0.528021 11.2401 0.318803 11.6572C0.109586 12.0742 0.000432201 12.5343 0 13.0009C0.000599463 13.4308 0.0936037 13.8556 0.272711 14.2465C0.451819 14.6373 0.712846 14.9851 1.03811 15.2663C1.36337 15.5475 1.74526 15.7554 2.15792 15.8761C2.57057 15.9968 3.00434 16.0274 3.42985 15.9658C3.85535 15.9042 4.26264 15.7518 4.62413 15.5191C4.98561 15.2863 5.29284 14.9786 5.52501 14.6167C5.75717 14.2548 5.90884 13.8473 5.96975 13.4217C6.03065 12.9961 5.99936 12.5623 5.878 12.1499L8.532 9.53289L9.5 10.5009L9.195 11.4149C9.13639 11.5911 9.12799 11.7801 9.17073 11.9608C9.21347 12.1414 9.30567 12.3067 9.437 12.4379L12.793 15.7939C12.9805 15.9814 13.2348 16.0867 13.5 16.0867C13.7652 16.0867 14.0195 15.9814 14.207 15.7939L15.793 14.2079C15.9805 14.0204 16.0858 13.7661 16.0858 13.5009C16.0858 13.2357 15.9805 12.9814 15.793 12.7939L12.437 9.43789C12.3058 9.30656 12.1405 9.21437 11.9599 9.17162C11.7792 9.12888 11.5902 9.13729 11.414 9.19589L10.5 9.50089L9.54 8.54089L12.22 5.89789C12.6646 6.01657 13.1305 6.03156 13.5818 5.94171C14.0331 5.85185 14.4577 5.65956 14.8229 5.37964C15.1882 5.09973 15.4842 4.73968 15.6883 4.32726C15.8924 3.91483 15.999 3.46105 16 3.00089C16 2.73189 15.965 2.47089 15.898 2.22389L13.758 4.36489L12 4.00089L11.636 2.24389L13.777 0.102893C13.2677 -0.0340459 12.7313 -0.0343015 12.2219 0.102152C11.7124 0.238605 11.248 0.506945 10.8753 0.880122C10.5026 1.2533 10.2349 1.71813 10.0991 2.22775C9.96338 2.73737 9.96437 3.27377 10.102 3.78289L7.462 6.46089L4.793 3.79389C4.60545 3.6064 4.50006 3.35209 4.5 3.08689V3.01589C4.50002 2.85665 4.462 2.69971 4.38912 2.55813C4.31624 2.41654 4.21061 2.29441 4.081 2.20189L1 0.000892883ZM10.646 10.6469C10.6924 10.6003 10.7476 10.5634 10.8084 10.5382C10.8691 10.513 10.9342 10.5 11 10.5C11.0658 10.5 11.1309 10.513 11.1916 10.5382C11.2524 10.5634 11.3076 10.6003 11.354 10.6469L14.354 13.6469C14.4005 13.6934 14.4374 13.7486 14.4625 13.8093C14.4877 13.87 14.5006 13.9351 14.5006 14.0009C14.5006 14.0666 14.4877 14.1317 14.4625 14.1925C14.4374 14.2532 14.4005 14.3084 14.354 14.3549C14.3075 14.4014 14.2523 14.4383 14.1916 14.4634C14.1308 14.4886 14.0657 14.5015 14 14.5015C13.9343 14.5015 13.8692 14.4886 13.8084 14.4634C13.7477 14.4383 13.6925 14.4014 13.646 14.3549L10.646 11.3549C10.5994 11.3084 10.5625 11.2533 10.5373 11.1925C10.5121 11.1318 10.4991 11.0667 10.4991 11.0009C10.4991 10.9351 10.5121 10.87 10.5373 10.8093C10.5625 10.7485 10.5994 10.6933 10.646 10.6469ZM3 11.0009L3.471 11.2429L4 11.2689L4.287 11.7139L4.732 12.0009L4.758 12.5299L5 13.0009L4.758 13.4719L4.732 14.0009L4.287 14.2879L4 14.7329L3.471 14.7589L3 15.0009L2.529 14.7589L2 14.7329L1.713 14.2879L1.268 14.0009L1.242 13.4719L1 13.0009L1.242 12.5299L1.268 12.0009L1.713 11.7139L2 11.2689L2.529 11.2429L3 11.0009Z" fill="#FF7800"/>
</svg>
