<svg width="19" height="22" viewBox="0 0 19 22" fill="none" xmlns="http://www.w3.org/2000/svg">
<path d="M9.5 7.7C11.2771 16.071 7.26471 22 7.26471 22H10.6176C12.7188 15.62 11.7353 11.099 11.1765 8.8L9.5 7.7ZM13.5906 5.676C13.7806 5.907 13.9706 6.149 14.1159 6.402C15.0266 7.8189 15.4498 9.48661 15.323 11.1585C15.1962 12.8305 14.5261 14.4179 13.4118 15.686C13.8946 14.5339 14.0908 13.2849 13.9838 12.0431C13.8769 10.8013 13.47 9.60268 12.7971 8.547C12.7076 8.404 12.6071 8.283 12.5176 8.151C11.875 7.26818 11.0529 6.52649 10.1035 5.973C8.49419 6.47854 7.08983 7.47456 6.09335 8.81714C5.09688 10.1597 4.5599 11.7794 4.56 13.442C4.56 14.256 4.68294 15.037 4.90647 15.763C3.9374 14.4363 3.41733 12.843 3.42 11.209C3.42 8.624 4.69412 6.336 6.65 4.906C5.02941 4.785 3.30824 5.137 1.81059 6.05C1.11765 6.501 0.514118 7.018 0 7.601C0.614706 6.138 1.67647 4.829 3.12941 3.927C4.80588 2.893 6.70588 2.552 8.53882 2.816C8.08059 2.2 7.52176 1.617 6.85118 1.1C6.20294 0.638 5.49882 0.264 4.76118 0C6.37059 0.044 7.98 0.55 9.35471 1.573C10.0588 2.09 10.6176 2.717 11.0647 3.377C11.1765 3.377 11.2771 3.366 11.3888 3.366C14.9653 3.366 17.9941 5.687 19 8.888C18.3712 8.01534 17.5662 7.27969 16.6355 6.72703C15.7047 6.17437 14.6682 5.81657 13.5906 5.676Z" fill="#FF7800"/>
</svg>
