<svg width="18" height="18" viewBox="0 0 18 18" fill="none" xmlns="http://www.w3.org/2000/svg">
<path d="M9 0C7.21997 0 5.47991 0.527841 3.99987 1.51677C2.51983 2.50571 1.36628 3.91131 0.685088 5.55585C0.00389955 7.20038 -0.17433 9.00998 0.172936 10.7558C0.520203 12.5016 1.37737 14.1053 2.63604 15.364C3.89471 16.6226 5.49836 17.4798 7.24419 17.8271C8.99002 18.1743 10.7996 17.9961 12.4442 17.3149C14.0887 16.6337 15.4943 15.4802 16.4832 14.0001C17.4722 12.5201 18 10.78 18 9C18 6.61305 17.0518 4.32387 15.364 2.63604C13.6761 0.948211 11.387 0 9 0ZM9 14.7857C8.80929 14.7857 8.62285 14.7292 8.46427 14.6232C8.3057 14.5172 8.1821 14.3666 8.10912 14.1904C8.03613 14.0142 8.01704 13.8204 8.05424 13.6333C8.09145 13.4462 8.18329 13.2744 8.31815 13.1396C8.45301 13.0047 8.62483 12.9129 8.81188 12.8757C8.99893 12.8385 9.19282 12.8576 9.36902 12.9305C9.54522 13.0035 9.69582 13.1271 9.80178 13.2857C9.90773 13.4443 9.96429 13.6307 9.96429 13.8214C9.96429 14.0772 9.86269 14.3224 9.68186 14.5033C9.50102 14.6841 9.25575 14.7857 9 14.7857ZM9.73415 9.801V11.4088H8.28772V8.35714H9.65379C10.059 8.35714 10.4476 8.19618 10.7341 7.90967C11.0206 7.62316 11.1815 7.23458 11.1815 6.82939C11.1815 6.42421 11.0206 6.03562 10.7341 5.74911C10.4476 5.4626 10.059 5.30164 9.65379 5.30164H8.6895C8.28473 5.30215 7.89668 5.46317 7.61047 5.74939C7.32425 6.03561 7.16323 6.42366 7.16272 6.82843V7.23857H5.71629V6.82843C5.71731 6.04037 6.03095 5.28492 6.58837 4.72786C7.14579 4.1708 7.90145 3.85765 8.6895 3.85714H9.65379C10.434 3.85893 11.1823 4.1674 11.7371 4.71601C12.2919 5.26461 12.6087 6.00936 12.6193 6.78952C12.6298 7.56969 12.3332 8.32272 11.7935 8.88613C11.2537 9.44953 10.514 9.77812 9.73415 9.801Z" fill="#FF7800"/>
</svg>
