<svg width="15" height="17" viewBox="0 0 15 17" fill="none" xmlns="http://www.w3.org/2000/svg">
<path d="M2 2.50003V4.00003H1C0.734784 4.00003 0.48043 4.10539 0.292893 4.29292C0.105357 4.48046 0 4.73481 0 5.00003V13C0 13.417 0.0780001 13.807 0.235 14.172C0.391 14.531 0.607 14.849 0.883 15.125C1.44515 15.6852 2.20637 15.9999 3 16H6.085C5.9908 15.7331 5.97405 15.445 6.03669 15.1689C6.09933 14.8928 6.23881 14.6402 6.439 14.44L7 13.879V12.829C6.41516 12.622 5.90885 12.2388 5.55075 11.7322C5.19266 11.2256 5.00038 10.6204 5.00038 10C5.00038 9.37963 5.19266 8.77447 5.55075 8.26785C5.90885 7.76123 6.41516 7.37804 7 7.17103V2.50003C7.00169 2.0644 6.88856 1.63602 6.672 1.25803C6.917 1.08603 7.193 1.00003 7.5 1.00003C7.79536 0.99721 8.08483 1.08272 8.33125 1.24557C8.57767 1.40843 8.76981 1.6412 8.883 1.91403C8.961 2.09603 9 2.29203 9 2.50003V4.00003H8V7.00003C8.77511 6.99993 9.52017 7.29985 10.0791 7.83692C10.6379 8.37399 10.9673 9.10653 10.998 9.88103L12 8.87903V5.00003C12 4.73481 11.8946 4.48046 11.7071 4.29292C11.5196 4.10539 11.2652 4.00003 11 4.00003H10V2.50003C10 2.15603 9.935 1.83303 9.805 1.53103C9.61608 1.07592 9.29601 0.687313 8.88554 0.414676C8.47507 0.142038 7.99276 -0.00230196 7.5 2.80628e-05C6.96019 -0.00019834 6.43552 0.178444 6.008 0.508028C5.79484 0.346852 5.55759 0.220298 5.305 0.133028C5.04607 0.0436781 4.77391 -0.00128776 4.5 2.80628e-05C4.156 2.80628e-05 3.833 0.065028 3.531 0.195028C3.224 0.325028 2.958 0.505028 2.734 0.734028C2.505 0.958028 2.325 1.22403 2.195 1.53103C2.065 1.83303 2 2.15603 2 2.50003ZM6 2.50003V4.00003H3V2.50003C2.99718 2.20467 3.08269 1.9152 3.24554 1.66878C3.4084 1.42236 3.64118 1.23022 3.914 1.11703C4.096 1.03903 4.292 1.00003 4.5 1.00003C4.79536 0.99721 5.08483 1.08272 5.33125 1.24557C5.57767 1.40843 5.76981 1.6412 5.883 1.91403C5.961 2.09603 6 2.29203 6 2.50003ZM8 12C8.53043 12 9.03914 11.7893 9.41421 11.4142C9.78929 11.0392 10 10.5305 10 10C10 9.46959 9.78929 8.96089 9.41421 8.58581C9.03914 8.21074 8.53043 8.00003 8 8.00003C7.46957 8.00003 6.96086 8.21074 6.58579 8.58581C6.21071 8.96089 6 9.46959 6 10C6 10.5305 6.21071 11.0392 6.58579 11.4142C6.96086 11.7893 7.46957 12 8 12ZM8 9.00003C8.26522 9.00003 8.51957 9.10538 8.70711 9.29292C8.89464 9.48046 9 9.73481 9 10C9 10.2652 8.89464 10.5196 8.70711 10.7071C8.51957 10.8947 8.26522 11 8 11C7.73478 11 7.48043 10.8947 7.29289 10.7071C7.10536 10.5196 7 10.2652 7 10C7 9.73481 7.10536 9.48046 7.29289 9.29292C7.48043 9.10538 7.73478 9.00003 8 9.00003ZM13 17C13.5304 17 14.0391 16.7893 14.4142 16.4142C14.7893 16.0392 15 15.5305 15 15C15 14.4696 14.7893 13.9609 14.4142 13.5858C14.0391 13.2107 13.5304 13 13 13C12.4696 13 11.9609 13.2107 11.5858 13.5858C11.2107 13.9609 11 14.4696 11 15C11 15.5305 11.2107 16.0392 11.5858 16.4142C11.9609 16.7893 12.4696 17 13 17ZM13 14C13.2652 14 13.5196 14.1054 13.7071 14.2929C13.8946 14.4805 14 14.7348 14 15C14 15.2652 13.8946 15.5196 13.7071 15.7071C13.5196 15.8947 13.2652 16 13 16C12.7348 16 12.4804 15.8947 12.2929 15.7071C12.1054 15.5196 12 15.2652 12 15C12 14.7348 12.1054 14.4805 12.2929 14.2929C12.4804 14.1054 12.7348 14 13 14ZM13.854 9.85403C13.9479 9.76014 14.0006 9.6328 14.0006 9.50003C14.0006 9.36725 13.9479 9.23991 13.854 9.14603C13.7601 9.05214 13.6328 8.9994 13.5 8.9994C13.3672 8.9994 13.2399 9.05214 13.146 9.14603L7.146 15.146C7.05211 15.2399 6.99937 15.3673 6.99937 15.5C6.99937 15.6328 7.05211 15.7601 7.146 15.854C7.23989 15.9479 7.36722 16.0007 7.5 16.0007C7.63278 16.0007 7.76011 15.9479 7.854 15.854L13.854 9.85403Z" fill="#FF7800"/>
</svg>
