<svg width="12" height="21" viewBox="0 0 12 21" fill="none" xmlns="http://www.w3.org/2000/svg">
<path d="M3.91069 7.0646V14.7533C3.91939 15.3155 4.14425 15.8517 4.53674 16.2462C4.92924 16.6406 5.4579 16.8617 6.00864 16.8617C6.55938 16.8617 7.08804 16.6406 7.48053 16.2462C7.87303 15.8517 8.09789 15.3155 8.10659 14.7533L8.11339 4.67541C8.1191 4.19486 8.03133 3.71793 7.85516 3.27228C7.679 2.82662 7.41794 2.4211 7.08713 2.07922C6.75632 1.73734 6.36233 1.46591 5.92801 1.28065C5.49368 1.09539 5.02766 1 4.55696 1C4.08625 1 3.62023 1.09539 3.18591 1.28065C2.75158 1.46591 2.3576 1.73734 2.02678 2.07922C1.69597 2.4211 1.43492 2.82662 1.25875 3.27228C1.08258 3.71793 0.994813 4.19486 1.00052 4.67541V14.8212C0.990934 15.4977 1.11316 16.1694 1.36011 16.7973C1.60705 17.4252 1.97378 17.9967 2.43898 18.4786C2.90417 18.9605 3.45855 19.3431 4.06988 19.6043C4.68122 19.8655 5.3373 20 6 20C6.6627 20 7.31878 19.8655 7.93012 19.6043C8.54145 19.3431 9.09583 18.9605 9.56102 18.4786C10.0262 17.9967 10.3929 17.4252 10.6399 16.7973C10.8868 16.1694 11.0091 15.4977 10.9995 14.8212V5.34032" stroke="#FF7800" stroke-width="1.5" stroke-miterlimit="10" stroke-linecap="round"/>
</svg>
