<svg width="21" height="16" viewBox="0 0 21 16" fill="none" xmlns="http://www.w3.org/2000/svg">
<path d="M21 10C21 8.05001 19.6001 6.43001 17.7503 6.08001L16.4004 2.05002C16.2044 1.45209 15.824 0.931642 15.3138 0.563348C14.8036 0.195055 14.1899 -0.00215378 13.5607 1.77428e-05H8.44121C7.15133 1.77428e-05 6.00144 0.820017 5.60148 2.05002L4.81156 4.40001L3.41169 3.00001L3.70166 2.71001C3.79424 2.61743 3.86767 2.50752 3.91777 2.38656C3.96787 2.26559 3.99366 2.13595 3.99366 2.00502C3.99366 1.87409 3.96787 1.74444 3.91777 1.62347C3.86767 1.50251 3.79424 1.3926 3.70166 1.30002C3.60909 1.20743 3.49919 1.13399 3.37824 1.08389C3.25729 1.03378 3.12765 1.008 2.99673 1.008C2.86581 1.008 2.73618 1.03378 2.61523 1.08389C2.49427 1.13399 2.38437 1.20743 2.2918 1.30002L0.291992 3.30001C0.105033 3.48699 0 3.74059 0 4.00501C0 4.26944 0.105033 4.52304 0.291992 4.71001C0.478952 4.89699 0.732524 5.00203 0.996925 5.00203C1.26133 5.00203 1.5149 4.89699 1.70186 4.71001L2.00183 4.41001L3.79166 6.20001C2.18181 6.72001 1.00192 8.22001 1.00192 10C1.00192 11.5 1.83184 12.79 3.05173 13.48C3.16539 14.1813 3.52426 14.8196 4.06443 15.2811C4.60461 15.7425 5.29102 15.9973 6.00144 16C7.30132 16 8.40121 15.16 8.82117 14H13.1908C13.6007 15.16 14.7006 16 16.0105 16C16.7209 15.9973 17.4073 15.7425 17.9475 15.2811C18.4877 14.8196 18.8465 14.1813 18.9602 13.48C20.1701 12.79 21 11.5 21 10ZM6.00144 14C5.4515 14 5.00154 13.55 5.00154 13C5.00154 12.45 5.4515 12 6.00144 12C6.55139 12 7.00135 12.45 7.00135 13C7.00135 13.55 6.55139 14 6.00144 14ZM10.0011 6.00001H6.4114L6.39141 5.98001L7.4913 2.68001C7.55838 2.48139 7.68618 2.30888 7.85664 2.18686C8.02709 2.06483 8.23158 1.99947 8.44121 2.00002H10.0011V6.00001ZM12.0009 2.00002H13.5607C13.7703 1.99947 13.9748 2.06483 14.1453 2.18686C14.3157 2.30888 14.4435 2.48139 14.5106 2.68001L15.6105 6.00001H12.0009V2.00002ZM16.0005 14C15.4505 14 15.0006 13.55 15.0006 13C15.0006 12.45 15.4505 12 16.0005 12C16.5504 12 17.0004 12.45 17.0004 13C17.0004 13.55 16.5504 14 16.0005 14Z" fill="#FF7800"/>
</svg>
