<svg width="20" height="21" viewBox="0 0 20 21" fill="none" xmlns="http://www.w3.org/2000/svg">
<path d="M17.8571 1.42857H10.7143V0.714286C10.7143 0.524845 10.639 0.343164 10.5051 0.209209C10.3711 0.0752549 10.1894 0 10 0C9.81056 0 9.62888 0.0752549 9.49492 0.209209C9.36097 0.343164 9.28571 0.524845 9.28571 0.714286V1.42857H2.14286C1.57472 1.42916 1.03002 1.65512 0.628281 2.05685C0.226545 2.45859 0.000590889 3.00329 0 3.57143V12.8571C0.000590889 13.4253 0.226545 13.97 0.628281 14.3717C1.03002 14.7735 1.57472 14.9994 2.14286 15H4.05312L2.88482 19.0893C2.85694 19.1801 2.84744 19.2755 2.85688 19.37C2.86632 19.4645 2.89451 19.5561 2.93979 19.6396C2.98508 19.7231 3.04655 19.7967 3.12062 19.8561C3.19469 19.9155 3.27987 19.9596 3.37117 19.9857C3.46247 20.0118 3.55806 20.0195 3.65235 20.0082C3.74664 19.997 3.83774 19.967 3.92032 19.9201C4.0029 19.8732 4.0753 19.8103 4.13329 19.7351C4.19128 19.6599 4.23369 19.5739 4.25804 19.4821L5.53884 15H9.28571V17.1429C9.28571 17.3323 9.36097 17.514 9.49492 17.6479C9.62888 17.7819 9.81056 17.8571 10 17.8571C10.1894 17.8571 10.3711 17.7819 10.5051 17.6479C10.639 17.514 10.7143 17.3323 10.7143 17.1429V15H14.4612L15.742 19.4821C15.7663 19.5739 15.8087 19.6599 15.8667 19.7351C15.9247 19.8103 15.9971 19.8732 16.0797 19.9201C16.1623 19.967 16.2534 19.997 16.3476 20.0082C16.4419 20.0195 16.5375 20.0118 16.6288 19.9857C16.7201 19.9596 16.8053 19.9155 16.8794 19.8561C16.9534 19.7967 17.0149 19.7231 17.0602 19.6396C17.1055 19.5561 17.1337 19.4645 17.1431 19.37C17.1526 19.2755 17.1431 19.1801 17.1152 19.0893L15.9469 15H17.8571C18.4253 14.9994 18.97 14.7735 19.3717 14.3717C19.7735 13.97 19.9994 13.4253 20 12.8571V3.57143C19.9994 3.00329 19.7735 2.45859 19.3717 2.05685C18.97 1.65512 18.4253 1.42916 17.8571 1.42857ZM18.5714 12.8571C18.5714 13.0466 18.4962 13.2283 18.3622 13.3622C18.2283 13.4962 18.0466 13.5714 17.8571 13.5714H2.14286C1.95342 13.5714 1.77174 13.4962 1.63778 13.3622C1.50383 13.2283 1.42857 13.0466 1.42857 12.8571V3.57143C1.42857 3.38199 1.50383 3.20031 1.63778 3.06635C1.77174 2.9324 1.95342 2.85714 2.14286 2.85714H17.8571C18.0466 2.85714 18.2283 2.9324 18.3622 3.06635C18.4962 3.20031 18.5714 3.38199 18.5714 3.57143V12.8571Z" fill="#FF7800"/>
</svg>
