<svg width="18" height="20" viewBox="0 0 18 20" fill="none" xmlns="http://www.w3.org/2000/svg">
<path d="M1.51184 11.2677L7.87749 19.0297C8.43448 19.6766 9.08431 20 9.82697 20C10.4901 20 11.0603 19.7979 11.5377 19.3936L17.0679 14.6636C17.5984 14.1785 17.9034 13.572 17.983 12.8444C18.0625 12.1706 17.8636 11.5103 17.3862 10.8634L11.0205 3.10136C10.3309 2.185 9.42911 1.60554 8.31513 1.36298L2.78497 0.0693041C2.2545 -0.0924054 1.75055 0.0288767 1.27313 0.43315L0.596779 1.03956C0.198926 1.33603 0 1.82116 0 2.49495L0.318282 8.27606C0.4509 9.43498 0.848753 10.4322 1.51184 11.2677ZM2.46669 1.72683L8.07641 3.10136C8.65993 3.23612 9.24345 3.59996 9.82697 4.1929L16.1926 11.955C16.4048 12.1706 16.4711 12.4131 16.3915 12.6826C16.3915 12.8444 16.2722 13.0734 16.0335 13.3699L10.5033 18.0999C10.3177 18.2616 10.0922 18.3357 9.82697 18.3223C9.56173 18.3088 9.3628 18.2077 9.23019 18.0191L2.86454 10.257C2.36059 9.61016 2.10862 8.94985 2.10862 8.27606L1.71077 2.33324L2.46669 1.72683ZM4.73445 4.55674C4.73445 4.79931 4.65488 5.00144 4.49574 5.16315C4.3366 5.32486 4.13767 5.40572 3.89896 5.40572C3.66025 5.40572 3.46132 5.32486 3.30218 5.16315C3.14304 5.00144 3.06347 4.79931 3.06347 4.55674C3.06347 4.31418 3.14304 4.11204 3.30218 3.95033C3.46132 3.78862 3.66025 3.70777 3.89896 3.70777C4.13767 3.70777 4.3366 3.78862 4.49574 3.95033C4.65488 4.11204 4.73445 4.31418 4.73445 4.55674ZM5.17209 10.5804L12.97 13.0869H13.2485C13.6198 13.0869 13.8983 12.8848 14.084 12.4805C14.1636 12.2649 14.1503 12.0493 14.0442 11.8337C13.9381 11.6181 13.779 11.4698 13.5668 11.389L5.76887 8.88247C5.55668 8.77466 5.33786 8.77466 5.11241 8.88247C4.88696 8.99028 4.73445 9.15199 4.65488 9.3676C4.49574 9.98749 4.66814 10.3918 5.17209 10.5804ZM11.5377 14.4615C11.5377 14.8118 11.4184 15.115 11.1797 15.3711C10.941 15.6271 10.6359 15.7551 10.2646 15.7551C9.89328 15.7551 9.58825 15.6271 9.34954 15.3711C9.11083 15.115 8.99148 14.8118 8.99148 14.4615C8.99148 14.1111 9.11746 13.8079 9.36944 13.5518C9.62141 13.2958 9.9198 13.1678 10.2646 13.1678C10.6094 13.1678 10.9078 13.2958 11.1598 13.5518C11.4117 13.8079 11.5377 14.1111 11.5377 14.4615ZM8.99148 7.5888C8.99148 7.93917 8.86549 8.24237 8.61351 8.49841C8.36154 8.75445 8.06315 8.88247 7.71835 8.88247C7.37354 8.88247 7.07515 8.75445 6.82318 8.49841C6.5712 8.24237 6.44522 7.93917 6.44522 7.5888C6.44522 7.23843 6.56457 6.93522 6.80328 6.67918C7.042 6.42314 7.34702 6.29512 7.71835 6.29512C8.08967 6.29512 8.3947 6.42314 8.63341 6.67918C8.87212 6.93522 8.99148 7.23843 8.99148 7.5888Z" fill="#FF7800"/>
</svg>
