<svg width="20" height="15" viewBox="0 0 20 15" fill="none" xmlns="http://www.w3.org/2000/svg">
<path fill-rule="evenodd" clip-rule="evenodd" d="M19.4439 6.379C18.5619 1.453 16.5899 0 15.5409 0C13.9039 0 13.4839 1.217 9.99987 1.258C6.51587 1.217 6.09587 0 4.45887 0C3.40987 0 1.43687 1.453 0.554872 6.379C0.0518716 9.191 -0.494128 13.389 0.806872 13.893C2.42587 14.52 2.97487 12.952 4.75287 11.627C6.55787 10.284 7.42387 9.968 9.99987 9.968C12.5759 9.968 13.4419 10.284 15.2469 11.627C17.0249 12.951 17.5739 14.52 19.1929 13.893C20.4939 13.389 19.9479 9.192 19.4439 6.379ZM5.99987 7.018C5.46944 7.018 4.96073 6.80729 4.58566 6.43221C4.21059 6.05714 3.99987 5.54843 3.99987 5.018C3.99987 4.48757 4.21059 3.97886 4.58566 3.60379C4.96073 3.22871 5.46944 3.018 5.99987 3.018C6.5303 3.018 7.03901 3.22871 7.41409 3.60379C7.78916 3.97886 7.99987 4.48757 7.99987 5.018C7.99987 5.54843 7.78916 6.05714 7.41409 6.43221C7.03901 6.80729 6.5303 7.018 5.99987 7.018ZM12.9999 7.018C12.7347 7.018 12.4803 6.91264 12.2928 6.72511C12.1052 6.53757 11.9999 6.28322 11.9999 6.018C11.9999 5.75278 12.1052 5.49843 12.2928 5.31089C12.4803 5.12336 12.7347 5.018 12.9999 5.018C13.2651 5.018 13.5194 5.12336 13.707 5.31089C13.8945 5.49843 13.9999 5.75278 13.9999 6.018C13.9999 6.28322 13.8945 6.53757 13.707 6.72511C13.5194 6.91264 13.2651 7.018 12.9999 7.018ZM14.9999 5.018C14.7347 5.018 14.4803 4.91264 14.2928 4.72511C14.1052 4.53757 13.9999 4.28322 13.9999 4.018C13.9999 3.75278 14.1052 3.49843 14.2928 3.31089C14.4803 3.12336 14.7347 3.018 14.9999 3.018C15.2651 3.018 15.5194 3.12336 15.707 3.31089C15.8945 3.49843 15.9999 3.75278 15.9999 4.018C15.9999 4.28322 15.8945 4.53757 15.707 4.72511C15.5194 4.91264 15.2651 5.018 14.9999 5.018Z" fill="#FF7800"/>
</svg>
