<svg width="20" height="20" viewBox="0 0 20 20" fill="none" xmlns="http://www.w3.org/2000/svg">
<path d="M19.6484 7.89062C19.8828 8.125 20 8.51237 20 9.05273C20 9.5931 19.8828 9.98047 19.6484 10.2148C19.5443 10.332 19.401 10.498 19.2188 10.7129C19.0365 10.9277 18.7012 11.3932 18.2129 12.1094C17.7246 12.8255 17.2786 13.5807 16.875 14.375C16.4583 15.1953 16.25 15.8203 16.25 16.25C16.263 17.0703 16.6797 18.3203 17.5 20H2.51953C2.61068 19.8177 2.72461 19.5768 2.86133 19.2773C2.99805 18.9779 3.18359 18.4928 3.41797 17.8223C3.65234 17.1517 3.76953 16.6276 3.76953 16.25C3.76953 16.0417 3.73372 15.8203 3.66211 15.5859C3.59049 15.3516 3.52539 15.1725 3.4668 15.0488C3.4082 14.9251 3.30078 14.7005 3.14453 14.375C2.74089 13.5938 2.30469 12.8548 1.83594 12.1582C1.36719 11.4616 1.00586 10.9635 0.751953 10.6641C0.498047 10.3646 0.364583 10.2148 0.351562 10.2148C0.117188 9.98047 0 9.5931 0 9.05273C0 8.51237 0.117188 8.125 0.351562 7.89062L8.76953 5.44922V3.75C8.41797 3.75 8.12175 3.62956 7.88086 3.38867C7.63997 3.14779 7.51953 2.85156 7.51953 2.5C6.39974 2.5 5.55339 2.63672 4.98047 2.91016C4.8763 3.50911 4.5931 4.00716 4.13086 4.4043C3.66862 4.80143 3.13151 5 2.51953 5C1.82943 5 1.24023 4.75586 0.751953 4.26758C0.263672 3.7793 0.0195312 3.1901 0.0195312 2.5C0.0195312 1.8099 0.263672 1.2207 0.751953 0.732422C1.24023 0.244141 1.82943 0 2.51953 0C3.02734 0 3.49284 0.146484 3.91602 0.439453C4.33919 0.732422 4.64193 1.10677 4.82422 1.5625C5.47526 1.36719 6.35417 1.26302 7.46094 1.25L7.48047 1.25977L7.51953 1.26953V1.25C7.51953 0.911458 7.63997 0.61849 7.88086 0.371094C8.12175 0.123698 8.41797 0 8.76953 0H11.25C11.6016 0 11.8978 0.123698 12.1387 0.371094C12.3796 0.61849 12.5 0.911458 12.5 1.25V2.5C12.5 2.85156 12.3796 3.14779 12.1387 3.38867C11.8978 3.62956 11.6016 3.75 11.25 3.75V5.46875L19.6484 7.89062Z" fill="#FF7800"/>
</svg>
