<svg width="20" height="20" viewBox="0 0 20 20" fill="none" xmlns="http://www.w3.org/2000/svg">
<path d="M19.316 2.05511C17.556 1.47811 13 -0.0148878 13 0.000112203C13 0.795762 12.6839 1.55882 12.1213 2.12143C11.5587 2.68404 10.7957 3.00011 10 3.00011C9.20436 3.00011 8.4413 2.68404 7.87869 2.12143C7.31608 1.55882 7.00001 0.795762 7.00001 0.000112203C7.00001 -0.0148878 2.44401 1.47811 0.683015 2.05511C0.483495 2.12051 0.309871 2.24753 0.187135 2.41789C0.0643995 2.58824 -0.00111762 2.79315 1.44268e-05 3.00311V6.71911C5.6387e-05 6.87101 0.0347013 7.0209 0.10132 7.15741C0.167938 7.29392 0.26478 7.41346 0.384493 7.50696C0.504207 7.60045 0.643647 7.66545 0.792229 7.69701C0.940812 7.72857 1.09463 7.72587 1.24201 7.68911L4.00001 7.00011V19.0001C4.00001 19.2653 4.10537 19.5197 4.29291 19.7072C4.48044 19.8948 4.7348 20.0001 5.00001 20.0001H15C15.2652 20.0001 15.5196 19.8948 15.7071 19.7072C15.8947 19.5197 16 19.2653 16 19.0001V7.00011L18.758 7.68911C18.9054 7.72587 19.0592 7.72857 19.2078 7.69701C19.3564 7.66545 19.4958 7.60045 19.6155 7.50696C19.7352 7.41346 19.8321 7.29392 19.8987 7.15741C19.9653 7.0209 20 6.87101 20 6.71911V3.00311C20.0011 2.79303 19.9354 2.58803 19.8125 2.41766C19.6896 2.24728 19.5157 2.12034 19.316 2.05511Z" fill="#FF7800"/>
</svg>
