<svg width="18" height="19" viewBox="0 0 18 19" fill="none" xmlns="http://www.w3.org/2000/svg">
<path d="M16.3596 2.55105C16.7924 3.06885 17.1389 3.63431 17.4004 4.2281C17.0087 4.69673 16.4633 5.01098 15.8615 5.11479C15.2597 5.21859 14.6405 5.1052 14.1145 4.79485L16.3596 2.55105ZM15.4489 1.6404L13.2039 3.88548C12.8935 3.35949 12.7801 2.74034 12.8839 2.13851C12.9877 1.53667 13.302 0.991281 13.7706 0.599649C14.3657 0.861125 14.9299 1.20761 15.4489 1.6404ZM16.8671 10.9299C17.8867 9.34969 18.237 7.42925 17.8409 5.59087C17.1848 6.11674 16.3752 6.41443 15.5347 6.43884C14.6943 6.46324 13.8687 6.21303 13.1833 5.72611L12.4233 6.48607L16.8671 10.9299ZM12.2726 4.81546C11.7862 4.12996 11.5364 3.30462 11.561 2.46443C11.5856 1.62424 11.8834 0.814956 12.4091 0.159134C10.5708 -0.236975 8.65031 0.113291 7.07014 1.1329L11.5139 5.5767L12.2739 4.81674L12.2726 4.81546ZM6.05129 1.93408C5.33212 2.61131 4.763 3.43187 4.38068 4.34274C6.09766 4.84508 8.17658 5.70937 9.88326 7.2048L10.602 6.48607L6.05 1.93408H6.05129ZM10.7978 8.11288L11.5139 7.39672L16.0659 11.9487C15.3948 12.6599 14.584 13.2247 13.6843 13.6077C13.182 11.8869 12.3112 9.81183 10.7991 8.11288H10.7978ZM12.869 15.9391C12.8677 17.2619 11.6775 18.2718 10.2993 17.9781C8.39426 17.5724 5.5 16.6578 3.44941 14.6073C1.40527 12.5631 0.474005 9.66756 0.0540983 7.7548C0.0183912 7.59322 0.000253145 7.42825 0 7.26276C0 5.94379 1.18501 4.92881 2.56581 5.21733C4.49274 5.62049 7.42178 6.53115 9.47365 8.58431C11.5294 10.64 12.4285 13.5601 12.8226 15.4754C12.8535 15.6326 12.869 15.7884 12.869 15.9391ZM5.89672 10.1725C5.77596 10.0516 5.61211 9.98355 5.4412 9.98342C5.2703 9.9833 5.10635 10.0511 4.98542 10.1718C4.86449 10.2926 4.79648 10.4565 4.79636 10.6274C4.79624 10.7983 4.86402 10.9622 4.98478 11.0831L6.91686 13.0152C7.03762 13.1362 7.20148 13.2042 7.37238 13.2043C7.54328 13.2044 7.70723 13.1366 7.82816 13.0159C7.94909 12.8951 8.0171 12.7313 8.01722 12.5604C8.01734 12.3894 7.94957 12.2255 7.82881 12.1046L5.89672 10.1725Z" fill="#FF7800"/>
</svg>
