<svg width="24" height="24" viewBox="0 0 24 24" fill="none" xmlns="http://www.w3.org/2000/svg">
<path d="M21.78 12.1505C21.532 11.073 20.6506 10.2782 19.5898 10.1599C17.0783 9.8793 14.535 9.87798 12.0042 9.8793C9.47231 9.87798 6.92958 9.8793 4.41727 10.1599C3.35698 10.2784 2.47614 11.0733 2.22841 12.1505C1.87533 13.6848 1.87109 15.3597 1.87109 16.9395C1.87109 18.5194 1.87109 20.194 2.22417 21.7283C2.47191 22.8055 3.35275 23.6004 4.41357 23.7189C6.92534 23.9998 9.46808 24.0008 11.9997 23.9998C14.5316 24.0011 17.0738 23.9998 19.5864 23.7189C20.6467 23.6004 21.528 22.8055 21.7758 21.7283C22.1286 20.194 22.1304 18.5194 22.1304 16.9395C22.1302 15.3594 22.1328 13.6848 21.78 12.1505ZM7.64976 13.3397H6.18345V21.1312H4.82143V13.3397H3.38186V12.0634H7.64976V13.3397ZM11.3491 21.1315H10.1239V20.3943C9.63721 20.9523 9.17508 21.2244 8.72487 21.2244C8.33024 21.2244 8.05868 21.0645 7.93614 20.7223C7.86944 20.5179 7.82815 20.1945 7.82815 19.7176V14.3748H9.05227V19.3494C9.05227 19.6363 9.05227 19.7853 9.06339 19.8256C9.09277 20.0156 9.18567 20.1119 9.34977 20.1119C9.59539 20.1119 9.85212 19.9227 10.1237 19.5386V14.3748H11.3489L11.3491 21.1315ZM16.0003 19.1035C16.0003 19.7284 15.9582 20.1786 15.8764 20.465C15.7128 20.9676 15.3854 21.2244 14.8984 21.2244C14.4628 21.2244 14.0425 20.9824 13.633 20.4769V21.1317H12.4089V12.0634H13.633V15.0249C14.0284 14.5381 14.4482 14.292 14.8984 14.292C15.3854 14.292 15.7131 14.5484 15.8764 15.0542C15.9587 15.3261 16.0003 15.7728 16.0003 16.4126V19.1035ZM20.6207 17.9763H18.1722V19.1739C18.1722 19.7993 18.3768 20.1117 18.7976 20.1117C19.0991 20.1117 19.2746 19.9478 19.3445 19.6207C19.3558 19.5543 19.372 19.2822 19.372 18.7912H20.621V18.9699C20.621 19.3645 20.6059 19.6363 20.5948 19.7586C20.5538 20.0296 20.4574 20.2755 20.3089 20.492C19.9699 20.9827 19.4675 21.2246 18.8281 21.2246C18.1876 21.2246 17.7 20.9941 17.3462 20.5328C17.0865 20.1945 16.9531 19.662 16.9531 18.9439V16.5775C16.9531 15.8552 17.0714 15.3269 17.3316 14.9854C17.6852 14.523 18.1725 14.2928 18.7979 14.2928C19.4122 14.2928 19.8992 14.523 20.2422 14.9854C20.4987 15.3269 20.6212 15.8552 20.6212 16.5775L20.6207 17.9763Z" fill="#FF7800"/>
<path d="M18.7862 15.3944C18.377 15.3944 18.1719 15.707 18.1719 16.3316V16.9568H19.396V16.3316C19.3957 15.707 19.1911 15.3944 18.7862 15.3944Z" fill="#FF7800"/>
<path d="M14.2434 15.3944C14.0417 15.3944 13.8374 15.4897 13.6328 15.6922V19.8103C13.8371 20.0151 14.0417 20.112 14.2434 20.112C14.5965 20.112 14.7759 19.8103 14.7759 19.2002V16.3163C14.7759 15.707 14.5965 15.3944 14.2434 15.3944Z" fill="#FF7800"/>
<path d="M14.9283 9.25641C15.3795 9.25641 15.8491 8.98221 16.3416 8.41792V9.16272H17.579V2.33435H16.3416V7.55323C16.0674 7.94071 15.8075 8.13234 15.56 8.13234C15.3944 8.13234 15.297 8.03441 15.27 7.84252C15.2549 7.80202 15.2549 7.65142 15.2549 7.3616V2.33435H14.0215V7.73374C14.0215 8.21597 14.0628 8.54232 14.1311 8.74903C14.2555 9.09496 14.5299 9.25641 14.9283 9.25641Z" fill="#FF7800"/>
<path d="M6.31255 5.45179V9.16281H7.68463V5.45179L9.33515 0H7.94772L7.01156 3.59827L6.03756 0H4.59375C4.88304 0.849344 5.18398 1.70292 5.47327 2.55306C5.91342 3.83092 6.18816 4.79434 6.31255 5.45179Z" fill="#FF7800"/>
<path d="M11.1755 9.25647C11.7954 9.25647 12.2771 9.0233 12.6188 8.55747C12.8784 8.21577 13.0028 7.67742 13.0028 6.95168V4.5606C13.0028 3.83062 12.8787 3.29704 12.6188 2.95216C12.2771 2.48501 11.7956 2.25183 11.1755 2.25183C10.5588 2.25183 10.0774 2.48501 9.73488 2.95216C9.47205 3.29704 9.34766 3.83062 9.34766 4.5606V6.95168C9.34766 7.67742 9.47205 8.21577 9.73488 8.55747C10.0771 9.0233 10.5588 9.25647 11.1755 9.25647ZM10.585 4.3126C10.585 3.68082 10.7766 3.36585 11.1755 3.36585C11.5744 3.36585 11.7655 3.68055 11.7655 4.3126V7.18486C11.7655 7.81664 11.5744 8.13266 11.1755 8.13266C10.7766 8.13266 10.585 7.81664 10.585 7.18486V4.3126Z" fill="#FF7800"/>
</svg>
